<svg width="34" height="34" viewBox="0 0 34 34" fill="none" xmlns="http://www.w3.org/2000/svg">
<path d="M32.5835 17.0003C32.5835 8.35866 25.6418 1.41699 17.0002 1.41699C8.3585 1.41699 1.41683 8.35866 1.41683 17.0003C1.41683 25.642 8.3585 32.5837 17.0002 32.5837C25.6418 32.5837 32.5835 25.642 32.5835 17.0003ZM15.5835 23.3753L15.5835 14.0253L12.3252 17.2837C11.7585 17.8503 10.9085 17.8503 10.3418 17.2837C10.0585 17.0003 9.91683 16.5753 9.91683 16.292C9.91683 16.0087 10.0585 15.5837 10.3418 15.3003L16.0085 9.63366C16.5752 9.06699 17.4252 9.06699 17.9918 9.63366L23.6585 15.3003C24.2252 15.867 24.2252 16.717 23.6585 17.2837C23.0918 17.8503 22.2418 17.8503 21.6752 17.2837L18.4168 14.0253L18.4168 23.3753C18.4168 24.2253 17.8502 24.792 17.0002 24.792C16.1502 24.792 15.5835 24.0837 15.5835 23.3753Z" fill="#60A5FA"/>
</svg>
