<svg width="34" height="34" viewBox="0 0 34 34" fill="none" xmlns="http://www.w3.org/2000/svg">
<path d="M32.583 17.0003C32.583 8.35866 25.6413 1.41699 16.9997 1.41699C8.35801 1.41699 1.41634 8.35866 1.41634 17.0003C1.41634 25.642 8.35801 32.5837 16.9997 32.5837C25.6413 32.5837 32.583 25.642 32.583 17.0003ZM15.583 23.3753L15.583 14.0253L12.3247 17.2837C11.758 17.8503 10.908 17.8503 10.3413 17.2837C10.058 17.0003 9.91634 16.5753 9.91634 16.292C9.91634 16.0087 10.058 15.5837 10.3413 15.3003L16.008 9.63366C16.5747 9.06699 17.4247 9.06699 17.9913 9.63366L23.658 15.3003C24.2247 15.867 24.2247 16.717 23.658 17.2837C23.0913 17.8503 22.2413 17.8503 21.6747 17.2837L18.4163 14.0253L18.4163 23.3753C18.4163 24.2253 17.8497 24.792 16.9997 24.792C16.1497 24.792 15.583 24.0837 15.583 23.3753Z" fill="#B3B3B3"/>
</svg>
