<svg width="16" height="16" viewBox="0 0 16 16" fill="none" xmlns="http://www.w3.org/2000/svg">
<path fill-rule="evenodd" clip-rule="evenodd" d="M9.20971 7.99975L12.977 4.23242C13.0514 4.15814 13.1103 4.06994 13.1506 3.97286C13.1908 3.87579 13.2116 3.77174 13.2116 3.66666C13.2116 3.56157 13.1909 3.45751 13.1508 3.36041C13.1106 3.26331 13.0517 3.17508 12.9774 3.10075C12.9031 3.02643 12.8149 2.96746 12.7178 2.92721C12.6207 2.88697 12.5167 2.86624 12.4116 2.86621C12.3065 2.86618 12.2025 2.88685 12.1054 2.92703C12.0083 2.96722 11.92 3.02614 11.8457 3.10042L8.07838 6.86842L4.31038 3.10042C4.15862 2.95867 3.95772 2.88143 3.75008 2.885C3.54245 2.88857 3.34433 2.97268 3.19753 3.11956C3.05073 3.26644 2.96674 3.46462 2.9633 3.67225C2.95985 3.87989 3.03721 4.08074 3.17904 4.23242L6.94704 7.99975L3.17904 11.7671C3.06768 11.8792 2.99196 12.0218 2.96141 12.1768C2.93085 12.3319 2.94683 12.4925 3.00732 12.6385C3.06782 12.7845 3.17013 12.9093 3.30139 12.9973C3.43266 13.0854 3.58701 13.1326 3.74504 13.1331C3.94971 13.1331 4.15438 13.0551 4.31038 12.8991L8.07838 9.13109L11.8457 12.8991C11.9199 12.9735 12.0081 13.0326 12.1051 13.0729C12.2022 13.1132 12.3063 13.1339 12.4114 13.1339C12.5165 13.1339 12.6205 13.1132 12.7176 13.0729C12.8147 13.0326 12.9028 12.9735 12.977 12.8991C13.0514 12.8248 13.1104 12.7366 13.1507 12.6394C13.191 12.5423 13.2117 12.4382 13.2117 12.3331C13.2117 12.228 13.191 12.1239 13.1507 12.0267C13.1104 11.9296 13.0514 11.8414 12.977 11.7671L9.20971 7.99975Z" fill="#999999"/>
</svg>
