<svg width="16" height="16" viewBox="0 0 16 16" fill="none" xmlns="http://www.w3.org/2000/svg">
<path fill-rule="evenodd" clip-rule="evenodd" d="M13.4001 5.74971C13.4001 5.86788 13.3768 5.9849 13.3315 6.09405C13.2862 6.20319 13.2198 6.30231 13.1361 6.38571L8.63607 10.8857C8.55249 10.9693 8.45326 11.0356 8.34405 11.0809C8.23484 11.1261 8.11778 11.1494 7.99957 11.1494C7.88135 11.1494 7.7643 11.1261 7.65508 11.0809C7.54587 11.0356 7.44664 10.9693 7.36307 10.8857L2.86307 6.38571C2.77658 6.30279 2.70753 6.20343 2.65995 6.09347C2.61237 5.98351 2.58722 5.86516 2.58599 5.74535C2.58475 5.62555 2.60745 5.5067 2.65275 5.39578C2.69805 5.28486 2.76504 5.18411 2.84979 5.09942C2.93454 5.01473 3.03535 4.94782 3.14631 4.90261C3.25726 4.8574 3.37613 4.83479 3.49593 4.83612C3.61574 4.83745 3.73407 4.86269 3.84399 4.91036C3.95392 4.95802 4.05321 5.02716 4.13607 5.11371L8.00007 8.97671L11.8631 5.11371C11.9889 4.98766 12.1493 4.90176 12.3239 4.86691C12.4986 4.83205 12.6796 4.84979 12.8442 4.91788C13.0087 4.98598 13.1494 5.10136 13.2484 5.24944C13.3473 5.39751 13.4001 5.57161 13.4001 5.74971Z" fill="#CCCCCC"/>
</svg>
