<svg width="104" height="104" viewBox="0 0 104 104" fill="none" xmlns="http://www.w3.org/2000/svg">
<rect x="10.2085" y="8.93262" width="76.5644" height="95.0675" rx="5.74233" fill="#60A5FA"/>
<rect width="76.5644" height="95.0675" rx="5.74233" fill="white"/>
<circle cx="15.3128" cy="22.9705" r="5.10429" fill="#60A5FA"/>
<circle cx="15.3128" cy="45.9402" r="5.10429" fill="#60A5FA"/>
<circle cx="15.3128" cy="68.909" r="5.10429" fill="#60A5FA"/>
<rect x="24.8833" y="17.8662" width="40.8344" height="10.2086" rx="5.10429" fill="#60A5FA"/>
<rect x="24.8833" y="40.8359" width="40.8344" height="10.2086" rx="5.10429" fill="#60A5FA"/>
<rect x="24.8833" y="63.8047" width="40.8344" height="10.2086" rx="5.10429" fill="#60A5FA"/>
<path d="M68.27 82.3845L70.6441 76.2119L73.9678 79.5356L68.27 82.3845Z" fill="#252525"/>
<path d="M70.644 76.2131L73.671 68.5566L77.2915 69.0908L76.8167 72.8894L72.0685 77.6375L70.644 76.2131Z" fill="#F9C8C4"/>
<path d="M81.5647 76.0339L73.9676 79.5356L72.0684 77.6363L76.8165 72.8881L80.6151 71.9385L81.5647 76.0339Z" fill="#E29990"/>
<path d="M76.1641 73.5426L99.8456 48.1992L104 52.3539L81.5651 76.0354L79.4878 76.4509L79.0723 74.789L76.1641 73.5426Z" fill="#87AAEE"/>
<path d="M76.164 73.5424L99.8455 48.1992L95.6323 44.3332L73.6712 68.557L73.3007 70.4642L74.9875 70.7629L76.164 73.5424Z" fill="#658FE1"/>
</svg>
