<svg width="16" height="16" viewBox="0 0 16 16" fill="none" xmlns="http://www.w3.org/2000/svg">
<path fill-rule="evenodd" clip-rule="evenodd" d="M13.9782 8.24151C13.7692 8.20512 13.5543 8.25322 13.3808 8.37524C13.2073 8.49726 13.0893 8.6832 13.0529 8.89218C12.8453 10.0847 12.2229 11.1655 11.2957 11.9435C10.3684 12.7216 9.19596 13.1468 7.98552 13.1442C5.14952 13.1442 2.84219 10.8368 2.84219 8.00017C2.84219 5.16417 5.14952 2.85684 7.98552 2.85684C9.27485 2.85684 10.4875 3.33284 11.4355 4.19284L10.7742 4.85417C10.6877 4.94036 10.6268 5.04887 10.5982 5.16761C10.5697 5.28636 10.5747 5.41069 10.6126 5.52677C10.6506 5.64285 10.72 5.74614 10.8131 5.82512C10.9062 5.90411 11.0195 5.95571 11.1402 5.97417L13.9482 6.40751C14.0508 6.42332 14.1556 6.41472 14.2543 6.3824C14.3529 6.35007 14.4425 6.29495 14.5158 6.22149C14.5892 6.14803 14.6441 6.05832 14.6763 5.95963C14.7084 5.86094 14.7168 5.75606 14.7009 5.65351L14.2682 2.84617C14.2496 2.72554 14.198 2.61241 14.119 2.51934C14.04 2.42627 13.9368 2.35689 13.8208 2.31892C13.7048 2.28094 13.5805 2.27584 13.4618 2.30419C13.3431 2.33254 13.2345 2.39322 13.1482 2.47951L12.5669 3.06151C11.3244 1.89992 9.68641 1.2547 7.98552 1.25684C4.26752 1.25684 1.24219 4.28217 1.24219 8.00017C1.24219 11.7188 4.26752 14.7435 7.98552 14.7435C11.2709 14.7435 14.0642 12.3982 14.6289 9.16684C14.6652 8.95786 14.6171 8.74297 14.4951 8.56945C14.3731 8.39592 14.1872 8.27796 13.9782 8.24151Z" fill="white"/>
</svg>
