<svg width="16" height="16" viewBox="0 0 16 16" fill="none" xmlns="http://www.w3.org/2000/svg">
<path fill-rule="evenodd" clip-rule="evenodd" d="M2.59993 10.2503C2.59987 10.1321 2.62317 10.0151 2.66847 9.90595C2.71378 9.79681 2.7802 9.69769 2.86393 9.61429L7.36393 5.11429C7.44751 5.03069 7.54674 4.96437 7.65595 4.91912C7.76516 4.87387 7.88222 4.85059 8.00043 4.85059C8.11865 4.85059 8.2357 4.87387 8.34492 4.91912C8.45413 4.96437 8.55336 5.03069 8.63693 5.11429L13.1369 9.61429C13.2234 9.69721 13.2925 9.79657 13.3401 9.90653C13.3876 10.0165 13.4128 10.1348 13.414 10.2546C13.4153 10.3745 13.3926 10.4933 13.3473 10.6042C13.302 10.7151 13.235 10.8159 13.1502 10.9006C13.0655 10.9853 12.9646 11.0522 12.8537 11.0974C12.7427 11.1426 12.6239 11.1652 12.5041 11.1639C12.3843 11.1625 12.2659 11.1373 12.156 11.0896C12.0461 11.042 11.9468 10.9728 11.8639 10.8863L7.99993 7.02329L4.13693 10.8863C4.01112 11.0123 3.85074 11.0982 3.67609 11.1331C3.50144 11.168 3.32038 11.1502 3.15582 11.0821C2.99126 11.014 2.8506 10.8986 2.75164 10.7506C2.65269 10.6025 2.59989 10.4284 2.59993 10.2503Z" fill="#5897E6"/>
</svg>
