<svg width="307" height="354" viewBox="0 0 307 354" fill="none" xmlns="http://www.w3.org/2000/svg">
<circle cx="177" cy="177" r="177" fill="url(#paint0_linear_1897_5144)"/>
<g clip-path="url(#clip0_1897_5144)">
<path d="M276.07 176.817C304.58 141.423 273.563 91.5584 226.284 96.7786C207.516 56.1636 145.483 56.1636 126.714 96.7786C79.4367 91.5584 48.4197 141.423 76.9299 176.817C48.4197 212.211 79.4367 262.076 126.715 256.856C145.484 297.471 207.517 297.471 226.285 256.856C273.564 262.077 304.58 212.211 276.07 176.817H276.07Z" fill="#79B5FF"/>
<path d="M183.629 176.817C184.941 176.817 186.035 177.897 185.71 179.169C185.598 179.606 185.455 180.036 185.282 180.454C184.804 181.608 184.104 182.656 183.221 183.538C182.339 184.421 181.291 185.121 180.138 185.599C178.984 186.076 177.748 186.322 176.5 186.322C175.252 186.322 174.016 186.076 172.862 185.599C171.709 185.121 170.661 184.421 169.779 183.538C168.896 182.656 168.196 181.608 167.718 180.454C167.545 180.036 167.402 179.606 167.29 179.169C166.965 177.897 168.059 176.817 169.371 176.817L176.5 176.817H183.629Z" fill="#485E89"/>
</g>
<path d="M161.054 170.876C164.335 170.876 166.995 168.216 166.995 164.935C166.995 161.654 164.335 158.994 161.054 158.994C157.773 158.994 155.113 161.654 155.113 164.935C155.113 168.216 157.773 170.876 161.054 170.876Z" fill="black"/>
<path d="M190.758 170.876C194.039 170.876 196.699 168.216 196.699 164.935C196.699 161.654 194.039 158.994 190.758 158.994C187.477 158.994 184.817 161.654 184.817 164.935C184.817 168.216 187.477 170.876 190.758 170.876Z" fill="black"/>
<path d="M225.215 194.639C231.777 194.639 237.097 189.32 237.097 182.758C237.097 176.196 231.777 170.876 225.215 170.876C218.653 170.876 213.333 176.196 213.333 182.758C213.333 189.32 218.653 194.639 225.215 194.639Z" fill="#E8F0FD"/>
<path d="M128.973 194.639C135.535 194.639 140.855 189.32 140.855 182.758C140.855 176.196 135.535 170.876 128.973 170.876C122.411 170.876 117.091 176.196 117.091 182.758C117.091 189.32 122.411 194.639 128.973 194.639Z" fill="#E8F0FD"/>
<ellipse cx="176.191" cy="323.664" rx="61.1909" ry="13.664" fill="#59708D" fill-opacity="0.2"/>
<defs>
<linearGradient id="paint0_linear_1897_5144" x1="177" y1="0" x2="177" y2="354" gradientUnits="userSpaceOnUse">
<stop stop-color="#C1DFFF"/>
<stop offset="1" stop-color="#D2E8FF" stop-opacity="0"/>
</linearGradient>
<clipPath id="clip0_1897_5144">
<rect width="221" height="237.634" fill="white" transform="translate(66 58)"/>
</clipPath>
</defs>
</svg>
