<svg width="113" height="121" viewBox="0 0 113 121" fill="none" xmlns="http://www.w3.org/2000/svg">
<g clip-path="url(#clip0_510_648)">
<path d="M106.641 60.3177C121.114 42.35 105.369 17.0362 81.3678 19.6862C71.8402 -0.931858 40.3492 -0.931858 30.8215 19.6862C6.82109 17.0362 -8.92461 42.35 5.54854 60.3177C-8.92461 78.2853 6.82109 103.599 30.8219 100.949C40.3496 121.567 71.8406 121.567 81.3683 100.949C105.369 103.6 121.114 78.2853 106.642 60.3177H106.641Z" fill="#EBF4FE"/>
<path d="M59.7139 60.3176C60.3802 60.3176 60.9351 60.8659 60.7703 61.5114C60.7136 61.7334 60.641 61.9515 60.553 62.1642C60.3105 62.7496 59.955 63.2815 59.507 63.7296C59.0589 64.1777 58.5269 64.5331 57.9415 64.7756C57.3561 65.0181 56.7286 65.1429 56.0949 65.1429C55.4612 65.1429 54.8338 65.0181 54.2483 64.7756C53.6629 64.5331 53.1309 64.1777 52.6829 63.7296C52.2348 63.2815 51.8793 62.7496 51.6368 62.1642C51.5488 61.9515 51.4762 61.7334 51.4195 61.5114C51.2547 60.8659 51.8096 60.3176 52.4759 60.3176L56.0949 60.3176H59.7139Z" fill="#8CA6DA"/>
</g>
<path d="M48.2537 57.3013C49.9193 57.3013 51.2695 55.951 51.2695 54.2854C51.2695 52.6198 49.9193 51.2695 48.2537 51.2695C46.588 51.2695 45.2378 52.6198 45.2378 54.2854C45.2378 55.951 46.588 57.3013 48.2537 57.3013Z" fill="black"/>
<path d="M63.3332 57.3013C64.9989 57.3013 66.3491 55.951 66.3491 54.2854C66.3491 52.6198 64.9989 51.2695 63.3332 51.2695C61.6676 51.2695 60.3174 52.6198 60.3174 54.2854C60.3174 55.951 61.6676 57.3013 63.3332 57.3013Z" fill="black"/>
<path d="M80.8252 69.3652C84.1564 69.3652 86.8569 66.6647 86.8569 63.3335C86.8569 60.0023 84.1564 57.3018 80.8252 57.3018C77.4939 57.3018 74.7935 60.0023 74.7935 63.3335C74.7935 66.6647 77.4939 69.3652 80.8252 69.3652Z" fill="#D0E2FF"/>
<path d="M31.9683 69.3652C35.2995 69.3652 38 66.6647 38 63.3335C38 60.0023 35.2995 57.3018 31.9683 57.3018C28.637 57.3018 25.9365 60.0023 25.9365 63.3335C25.9365 66.6647 28.637 69.3652 31.9683 69.3652Z" fill="#D0E2FF"/>
<defs>
<clipPath id="clip0_510_648">
<rect width="112.19" height="120.634" fill="white"/>
</clipPath>
</defs>
</svg>
