<svg width="234" height="234" viewBox="0 0 234 234" fill="none" xmlns="http://www.w3.org/2000/svg">
<circle cx="117" cy="117" r="117" fill="url(#paint0_linear_1280_3766)"/>
<g clip-path="url(#clip0_1280_3766)">
<path d="M182.986 116.802C201.88 93.5423 181.325 60.7723 149.993 64.2029C137.555 37.5118 96.4441 37.5118 84.006 64.2029C52.6742 60.7723 32.1187 93.5423 51.013 116.802C32.1187 140.062 52.6743 172.832 84.0066 169.402C96.4446 196.093 137.555 196.093 149.993 169.402C181.325 172.833 201.88 140.062 182.987 116.802H182.986Z" fill="#79B5FF"/>
<path d="M120.845 116.801C122.201 116.801 123.342 117.941 122.82 119.192C122.503 119.95 122.039 120.638 121.454 121.218C120.869 121.799 120.175 122.259 119.411 122.573C118.646 122.886 117.827 123.048 117 123.048C116.173 123.048 115.354 122.886 114.589 122.573C113.825 122.259 113.131 121.799 112.546 121.218C111.961 120.638 111.497 119.95 111.18 119.192C110.658 117.941 111.799 116.801 113.155 116.801L117 116.801H120.845Z" fill="#485E89"/>
</g>
<path d="M106.763 112.898C108.938 112.898 110.7 111.15 110.7 108.994C110.7 106.838 108.938 105.09 106.763 105.09C104.589 105.09 102.826 106.838 102.826 108.994C102.826 111.15 104.589 112.898 106.763 112.898Z" fill="black"/>
<path d="M126.449 112.898C128.624 112.898 130.386 111.15 130.386 108.994C130.386 106.838 128.624 105.09 126.449 105.09C124.275 105.09 122.512 106.838 122.512 108.994C122.512 111.15 124.275 112.898 126.449 112.898Z" fill="black"/>
<path d="M149.284 128.514C153.633 128.514 157.158 125.018 157.158 120.706C157.158 116.393 153.633 112.897 149.284 112.897C144.935 112.897 141.41 116.393 141.41 120.706C141.41 125.018 144.935 128.514 149.284 128.514Z" fill="#E8F0FD"/>
<path d="M85.5026 128.514C89.8515 128.514 93.3769 125.018 93.3769 120.706C93.3769 116.393 89.8515 112.897 85.5026 112.897C81.1538 112.897 77.6284 116.393 77.6284 120.706C77.6284 125.018 81.1538 128.514 85.5026 128.514Z" fill="#E8F0FD"/>
<ellipse cx="116.795" cy="213.307" rx="40.5522" ry="8.97961" fill="#59708D" fill-opacity="0.2"/>
<defs>
<linearGradient id="paint0_linear_1280_3766" x1="117" y1="0" x2="117" y2="234" gradientUnits="userSpaceOnUse">
<stop stop-color="#C1DFFF"/>
<stop offset="1" stop-color="#D2E8FF" stop-opacity="0"/>
</linearGradient>
<clipPath id="clip0_1280_3766">
<rect width="146.46" height="156.167" fill="white" transform="translate(43.7695 38.7188)"/>
</clipPath>
</defs>
</svg>
