<svg width="92" height="99" viewBox="0 0 92 99" fill="none" xmlns="http://www.w3.org/2000/svg">
<g clip-path="url(#clip0_723_999)">
<path d="M87.4403 49.4553C99.3075 34.7233 86.3969 13.968 66.7174 16.1408C58.9052 -0.764376 33.0842 -0.764376 25.272 16.1408C5.59294 13.968 -7.31772 34.7233 4.54952 49.4553C-7.31772 64.1874 5.59295 84.9427 25.2724 82.7699C33.0846 99.675 58.9056 99.675 66.7178 82.7699C86.3972 84.943 99.3075 64.1874 87.4406 49.4553H87.4403Z" fill="#79B5FF"/>
<path d="M48.9559 49.4554C49.5059 49.4554 49.964 49.9081 49.827 50.4407C49.7808 50.6205 49.7219 50.7972 49.6505 50.9695C49.4517 51.4495 49.1602 51.8857 48.7928 52.2531C48.4254 52.6204 47.9893 52.9119 47.5092 53.1107C47.0292 53.3095 46.5147 53.4119 45.9951 53.4119C45.4756 53.4119 44.9611 53.3095 44.481 53.1107C44.001 52.9119 43.5648 52.6204 43.1974 52.2531C42.83 51.8857 42.5386 51.4495 42.3397 50.9695C42.2684 50.7972 42.2095 50.6205 42.1632 50.4407C42.0263 49.9081 42.4844 49.4554 43.0343 49.4554L45.9951 49.4554H48.9559Z" fill="#4266AB"/>
</g>
<path d="M39.5646 46.9826C40.9304 46.9826 42.0375 45.8755 42.0375 44.5099C42.0375 43.1442 40.9304 42.0371 39.5646 42.0371C38.1989 42.0371 37.0918 43.1442 37.0918 44.5099C37.0918 45.8755 38.1989 46.9826 39.5646 46.9826Z" fill="black"/>
<path d="M51.9299 46.9826C53.2956 46.9826 54.4027 45.8755 54.4027 44.5099C54.4027 43.1442 53.2956 42.0371 51.9299 42.0371C50.5642 42.0371 49.457 43.1442 49.457 44.5099C49.457 45.8755 50.5642 46.9826 51.9299 46.9826Z" fill="black"/>
<path d="M66.2728 56.8735C69.0043 56.8735 71.2185 54.6593 71.2185 51.928C71.2185 49.1966 69.0043 46.9824 66.2728 46.9824C63.5414 46.9824 61.3271 49.1966 61.3271 51.928C61.3271 54.6593 63.5414 56.8735 66.2728 56.8735Z" fill="#E8F0FD"/>
<path d="M26.2123 56.8735C28.9437 56.8735 31.158 54.6593 31.158 51.928C31.158 49.1966 28.9437 46.9824 26.2123 46.9824C23.4809 46.9824 21.2666 49.1966 21.2666 51.928C21.2666 54.6593 23.4809 56.8735 26.2123 56.8735Z" fill="#E8F0FD"/>
<defs>
<clipPath id="clip0_723_999">
<rect width="91.99" height="98.9106" fill="white"/>
</clipPath>
</defs>
</svg>
