<svg width="311" height="311" viewBox="0 0 311 311" fill="none" xmlns="http://www.w3.org/2000/svg">
<circle cx="155.5" cy="155.5" r="155.5" fill="url(#paint0_linear_1897_5146)"/>
<g clip-path="url(#clip0_1897_5146)">
<path d="M231.62 105.356C248.262 84.6957 230.157 55.5889 202.56 58.636C191.604 34.9286 155.395 34.9286 144.44 58.636C116.843 55.5889 98.7382 84.6957 115.38 105.356C98.7382 126.015 116.843 155.122 144.44 152.075C155.395 175.783 191.605 175.783 202.56 152.075C230.157 155.123 248.262 126.015 231.62 105.356H231.62Z" fill="#79B5FF"/>
<path d="M177.348 105.355C178.287 105.355 179.073 106.133 178.79 107.029C178.741 107.181 178.687 107.331 178.626 107.478C178.347 108.151 177.938 108.763 177.423 109.278C176.908 109.794 176.296 110.202 175.623 110.481C174.95 110.76 174.228 110.903 173.5 110.903C172.771 110.903 172.049 110.76 171.376 110.481C170.703 110.202 170.091 109.794 169.576 109.278C169.061 108.763 168.652 108.151 168.374 107.478C168.312 107.331 168.258 107.181 168.21 107.029C167.926 106.133 168.712 105.355 169.651 105.355L173.5 105.355H177.348Z" fill="#4266AB"/>
</g>
<path d="M164.483 101.888C166.399 101.888 167.951 100.335 167.951 98.4199C167.951 96.5047 166.399 94.9521 164.483 94.9521C162.568 94.9521 161.016 96.5047 161.016 98.4199C161.016 100.335 162.568 101.888 164.483 101.888Z" fill="black"/>
<path d="M181.822 101.888C183.737 101.888 185.29 100.335 185.29 98.4199C185.29 96.5047 183.737 94.9521 181.822 94.9521C179.907 94.9521 178.354 96.5047 178.354 98.4199C178.354 100.335 179.907 101.888 181.822 101.888Z" fill="black"/>
<path d="M201.935 115.759C205.766 115.759 208.871 112.654 208.871 108.823C208.871 104.993 205.766 101.888 201.935 101.888C198.105 101.888 195 104.993 195 108.823C195 112.654 198.105 115.759 201.935 115.759Z" fill="#E8F0FD"/>
<path d="M145.758 115.759C149.588 115.759 152.693 112.654 152.693 108.823C152.693 104.993 149.588 101.888 145.758 101.888C141.927 101.888 138.822 104.993 138.822 108.823C138.822 112.654 141.927 115.759 145.758 115.759Z" fill="#E8F0FD"/>
<defs>
<linearGradient id="paint0_linear_1897_5146" x1="155.5" y1="0" x2="155.5" y2="311" gradientUnits="userSpaceOnUse">
<stop stop-color="#B5D9FF"/>
<stop offset="1" stop-color="#D2E8FF" stop-opacity="0"/>
</linearGradient>
<clipPath id="clip0_1897_5146">
<rect width="129" height="138.71" fill="white" transform="translate(109 36)"/>
</clipPath>
</defs>
</svg>
